<svg xmlns="http://www.w3.org/2000/svg" viewBox="0 0 512 512">
  <defs>
    <linearGradient id="g" x1="0" y1="0" x2="1" y2="1">
      <stop offset="0" stop-color="#2D6CDF"/>
      <stop offset="1" stop-color="#21C7A8"/>
    </linearGradient>
    <filter id="shadow" x="-20%" y="-20%" width="140%" height="140%">
      <feDropShadow dx="0" dy="6" stdDeviation="8" flood-color="#000" flood-opacity="0.18"/>
    </filter>
  </defs>

<!-- Background -->
  <rect x="56" y="56" width="400" height="400" rx="80" fill="url(#bgGradient)" filter="url(#shadow)"/>

  <!-- Mark -->
  <g transform="translate(40,30)" filter="url(#shadow)">
    <rect x="0" y="0" rx="28" ry="28" width="140" height="140" fill="url(#g)"/>
    <!-- chat bubble -->
    <path d="M42 46h56c12 0 22 10 22 22v20c0 12-10 22-22 22H78l-18 16v-16H42c-12 0-22-10-22-22V68c0-12 10-22 22-22z"
          fill="#ffffff" opacity="0.95"/>
    <!-- network nodes -->
    <circle cx="54" cy="78" r="6" fill="#2D6CDF"/>
    <circle cx="86" cy="70" r="6" fill="#2D6CDF"/>
    <circle cx="104" cy="92" r="6" fill="#2D6CDF"/>
    <path d="M54 78 L86 70 L104 92" stroke="#2D6CDF" stroke-width="4" fill="none" stroke-linecap="round" opacity="0.9"/>
    <!-- pulse -->
    <path d="M38 104 C48 92, 56 118, 66 106 S86 96, 96 106 S118 116, 124 104"
          stroke="#21C7A8" stroke-width="5" fill="none" stroke-linecap="round" opacity="0.9"/>
  </g>
</svg>
